<?xml version="1.0" encoding="utf-8"?>
<!-- Generator: Adobe Illustrator 22.0.1, SVG Export Plug-In . SVG Version: 6.00 Build 0)  -->
<svg version="1.1" id="Layer_1" xmlns="http://www.w3.org/2000/svg" xmlns:xlink="http://www.w3.org/1999/xlink" x="0px" y="0px"
	 viewBox="0 0 490.2 163.8" style="enable-background:new 0 0 490.2 163.8;" xml:space="preserve">
<style type="text/css">
	.st0{fill:#2B2464;}
	.st1{fill:#FFFFFF;}
	.st2{fill:#E30613;}
</style>
<g>
	<g>
		<path class="st0" d="M24.5,146.5c-1,0-2,0-3-0.2c-1-0.1-2.1-0.2-3.1-0.4c-1-0.1-2-0.3-2.9-0.5s-1.7-0.4-2.4-0.7l1.5-7.1
			c1.3,0.3,2.8,0.6,4.5,0.9c1.7,0.3,3.4,0.5,5.1,0.5c1.8,0,3.2-0.2,4.2-0.7s1.5-1.4,1.5-2.8c0-1-0.3-1.8-0.8-2.3
			c-0.6-0.5-1.5-0.9-2.9-1.1l-3.5-0.6c-3.1-0.5-5.4-1.5-6.8-3.1s-2.2-4-2.2-7.2v-0.5c0-1.6,0.3-3.1,0.9-4.4c0.6-1.3,1.5-2.4,2.8-3.4
			c1.2-0.9,2.8-1.7,4.7-2.2c1.9-0.5,4.2-0.8,6.8-0.8c1.6,0,3.2,0.1,4.8,0.4c1.6,0.3,3.1,0.6,4.5,1l-1.3,7c-1.1-0.3-2.4-0.6-3.8-0.8
			c-1.4-0.2-2.9-0.3-4.5-0.3c-2.1,0-3.6,0.2-4.6,0.7s-1.5,1.4-1.5,2.7c0,0.9,0.3,1.6,0.8,2.1s1.5,0.8,2.8,1.1l3.3,0.5
			c2,0.3,3.6,0.8,4.8,1.5c1.3,0.7,2.3,1.4,3,2.3c0.7,0.9,1.2,2,1.5,3.1c0.3,1.2,0.4,2.4,0.4,3.7v0.7c0,3.4-1.3,6-3.8,7.9
			C32.9,145.5,29.2,146.5,24.5,146.5z"/>
		<path class="st0" d="M59.7,109.5c3.1,0,5.6,0.4,7.6,1.3c2,0.9,3.5,2,4.6,3.5s1.9,3.3,2.3,5.3s0.6,4.2,0.6,6.5v4.1
			c0,2.5-0.2,4.7-0.7,6.7s-1.3,3.8-2.4,5.2s-2.7,2.6-4.6,3.4s-4.4,1.2-7.4,1.2c-3.1,0-5.6-0.4-7.6-1.3c-2-0.9-3.5-2.1-4.6-3.6
			s-1.9-3.3-2.3-5.3c-0.4-2-0.6-4.2-0.6-6.4V126c0-2.5,0.2-4.7,0.7-6.8c0.5-2,1.3-3.8,2.5-5.2c1.2-1.5,2.8-2.6,4.7-3.4
			C54.3,109.9,56.8,109.5,59.7,109.5z M59.8,139.3c0.8,0,1.6-0.1,2.2-0.3c0.7-0.2,1.3-0.6,1.8-1.3c0.5-0.6,0.9-1.5,1.2-2.7
			c0.3-1.2,0.4-2.7,0.4-4.6v-4.5c0-1.9-0.1-3.4-0.4-4.6c-0.2-1.2-0.6-2.1-1.1-2.7c-0.5-0.6-1.1-1.1-1.8-1.3
			c-0.7-0.2-1.5-0.3-2.4-0.3s-1.7,0.1-2.4,0.3c-0.7,0.2-1.3,0.7-1.8,1.3c-0.5,0.7-0.9,1.5-1.2,2.7c-0.3,1.1-0.4,2.7-0.4,4.5v4.5
			c0,1.9,0.1,3.4,0.4,4.6c0.3,1.2,0.7,2.1,1.2,2.7c0.5,0.6,1.1,1.1,1.8,1.3C58.1,139.2,58.9,139.3,59.8,139.3z"/>
		<path class="st0" d="M90.6,110.4v28.1h14.6l-1,7.5H81.4v-35.6H90.6z"/>
		<path class="st0" d="M120.1,146.5c-1,0-2,0-3-0.2c-1-0.1-2.1-0.2-3.1-0.4c-1-0.1-2-0.3-2.9-0.5s-1.7-0.4-2.4-0.7l1.5-7.1
			c1.3,0.3,2.8,0.6,4.5,0.9c1.7,0.3,3.4,0.5,5.1,0.5c1.8,0,3.2-0.2,4.2-0.7s1.5-1.4,1.5-2.8c0-1-0.3-1.8-0.8-2.3
			c-0.6-0.5-1.5-0.9-2.9-1.1l-3.5-0.6c-3.1-0.5-5.4-1.5-6.8-3.1s-2.2-4-2.2-7.2v-0.5c0-1.6,0.3-3.1,0.9-4.4c0.6-1.3,1.5-2.4,2.8-3.4
			c1.2-0.9,2.8-1.7,4.7-2.2c1.9-0.5,4.2-0.8,6.8-0.8c1.6,0,3.2,0.1,4.8,0.4c1.6,0.3,3.1,0.6,4.5,1l-1.3,7c-1.1-0.3-2.4-0.6-3.8-0.8
			c-1.4-0.2-2.9-0.3-4.5-0.3c-2.1,0-3.6,0.2-4.6,0.7s-1.5,1.4-1.5,2.7c0,0.9,0.3,1.6,0.8,2.1s1.5,0.8,2.8,1.1l3.3,0.5
			c2,0.3,3.6,0.8,4.8,1.5c1.3,0.7,2.3,1.4,3,2.3c0.7,0.9,1.2,2,1.5,3.1c0.3,1.2,0.4,2.4,0.4,3.7v0.7c0,3.4-1.3,6-3.8,7.9
			C128.5,145.5,124.8,146.5,120.1,146.5z"/>
		<path class="st0" d="M167,110.4l-0.9,7.5h-9.2V146h-9.2v-28.1H138l0.9-7.5H167z"/>
		<path class="st0" d="M186.2,138h-10.1l-2.2,8H165l11.3-35.6h10l11.6,35.6h-9.5L186.2,138z M177.6,130.9h7l-3.4-11.8L177.6,130.9z"
			/>
		<path class="st0" d="M202,110.4h13c3.1,0,5.7,0.4,7.8,1.2s3.7,1.9,5,3.3c1.2,1.4,2.1,3.1,2.6,5.1s0.8,4.2,0.8,6.6v2.9
			c0,2.4-0.3,4.6-0.8,6.6s-1.4,3.7-2.6,5.2c-1.2,1.4-2.9,2.6-5,3.4c-2.1,0.8-4.7,1.2-7.8,1.2h-13V110.4z M211.2,138.4h3.1
			c1.3,0,2.4-0.2,3.3-0.5c0.9-0.3,1.7-0.8,2.3-1.5s1.1-1.7,1.3-2.8c0.3-1.2,0.4-2.6,0.4-4.4v-1.9c0-1.8-0.1-3.3-0.4-4.5
			c-0.3-1.2-0.8-2.1-1.4-2.8c-0.6-0.7-1.4-1.2-2.3-1.5c-0.9-0.3-2-0.4-3.3-0.4h-3.1L211.2,138.4L211.2,138.4z"/>
		<path class="st0" d="M287.6,110.4l-0.9,7.4H273v7.5h12.5l-0.9,7.2H273V146h-9.3v-35.6H287.6z"/>
		<path class="st0" d="M307.7,138h-10.1l-2.2,8h-8.9l11.3-35.6h10l11.6,35.6H310L307.7,138z M299.2,130.9h7l-3.4-11.8L299.2,130.9z"
			/>
		<path class="st0" d="M350.4,122.4c0,1.4-0.1,2.6-0.3,3.7c-0.2,1-0.6,2-1.1,2.8s-1.1,1.5-1.9,2.1s-1.6,1.1-2.7,1.6l7.3,13.4h-9.8
			l-6.2-12.3h-3.1V146h-9v-35.6h15.5c2.1,0,3.9,0.3,5.3,0.9c1.4,0.6,2.6,1.4,3.5,2.4s1.5,2.2,1.9,3.5s0.6,2.7,0.6,4.2L350.4,122.4
			L350.4,122.4z M332.6,126.4h4.8c1.3,0,2.3-0.3,3-1s1.1-1.7,1.1-2.9v-0.8c0-2.6-1.4-3.8-4-3.8h-4.8v8.5H332.6z"/>
		<path class="st0" d="M366.8,146.5c-1,0-2,0-3-0.2c-1-0.1-2.1-0.2-3.1-0.4c-1-0.1-2-0.3-2.9-0.5s-1.7-0.4-2.4-0.7l1.6-7.1
			c1.3,0.3,2.8,0.6,4.5,0.9c1.7,0.3,3.4,0.5,5.1,0.5c1.8,0,3.2-0.2,4.2-0.7s1.5-1.4,1.5-2.8c0-1-0.3-1.8-0.8-2.3s-1.5-0.9-2.9-1.1
			l-3.5-0.6c-3.1-0.5-5.4-1.5-6.8-3.1s-2.2-4-2.2-7.2v-0.5c0-1.6,0.3-3.1,0.9-4.4c0.6-1.3,1.5-2.4,2.8-3.4c1.2-0.9,2.8-1.7,4.8-2.2
			c1.9-0.5,4.2-0.8,6.8-0.8c1.6,0,3.2,0.1,4.8,0.4c1.6,0.3,3.1,0.6,4.5,1l-1.3,7c-1.1-0.3-2.4-0.6-3.8-0.8s-2.9-0.3-4.5-0.3
			c-2.1,0-3.6,0.2-4.6,0.7s-1.5,1.4-1.5,2.7c0,0.9,0.3,1.6,0.8,2.1s1.5,0.8,2.8,1.1l3.3,0.5c2,0.3,3.6,0.8,4.8,1.5
			c1.3,0.7,2.3,1.4,3,2.3c0.7,0.9,1.2,2,1.5,3.1c0.3,1.2,0.4,2.4,0.4,3.7v0.7c0,3.4-1.3,6-3.8,7.9
			C375.2,145.5,371.5,146.5,366.8,146.5z"/>
		<path class="st0" d="M413.7,110.4l-0.9,7.5h-9.2V146h-9.2v-28.1h-9.7l0.9-7.5H413.7z"/>
		<path class="st0" d="M432.9,138h-10.1l-2.2,8h-8.9l11.3-35.6h10l11.6,35.6h-9.5L432.9,138z M424.4,130.9h7l-3.4-11.8L424.4,130.9z
			"/>
		<path class="st0" d="M448.8,110.4h13c3.1,0,5.7,0.4,7.8,1.2s3.7,1.9,5,3.3c1.2,1.4,2.1,3.1,2.6,5.1s0.8,4.2,0.8,6.6v2.9
			c0,2.4-0.3,4.6-0.8,6.6s-1.4,3.7-2.6,5.2c-1.2,1.4-2.9,2.6-5,3.4s-4.7,1.2-7.8,1.2h-13V110.4z M457.9,138.4h3.1
			c1.3,0,2.4-0.2,3.3-0.5s1.7-0.8,2.3-1.5c0.6-0.7,1.1-1.7,1.4-2.8c0.3-1.2,0.4-2.6,0.4-4.4v-1.9c0-1.8-0.2-3.3-0.5-4.5
			s-0.8-2.1-1.4-2.8s-1.4-1.2-2.3-1.5s-2-0.4-3.3-0.4h-3.1v20.3H457.9z"/>
	</g>
</g>
<g>
	<g>
		<path class="st1" d="M216.9,34.2L236,96.1c7.3-6,14.7-9.7,22-10.9c10.4-1.7,17.2,0.8,23.7,3.3c6.9,2.6,14,5.2,25.7,3.2
			c9.3-1.6,20.4-10.2,24.7-13.7l-27.4-24.9l13.8-36.3c-5,3.2-11.9,5.2-20.5,5.9c-9.4,0.8-17-1.5-24.4-3.8
			c-8.1-2.5-15.7-4.8-24.8-2.7C239.9,18.1,222.9,29.3,216.9,34.2z"/>
	</g>
	<path class="st2" d="M326.4,71.3c-6.5,5.3-15.1,10.7-21.5,11.8c-10.6,1.8-16.9-0.6-23.6-3c-7-2.6-14.2-5.3-25.4-3.4
		c-7.4,1.2-14.9,4.8-22.3,10.6l2.5,7.7l1,1.2c6.9-5.9,13.7-9.5,20.3-10.5c8.8-1.4,14.3,0.6,20.7,3c7.2,2.7,15.3,5.7,28.4,3.5
		c10-1.7,21.1-9.9,26.6-14.4L326.4,71.3z"/>
	<path class="st2" d="M319.1,17.1l-0.9-1c-4.2,3.6-11,5.8-19.9,6.6c-8.2,0.7-15-1.4-22.1-3.6c-8.3-2.6-17-5.2-27.4-2.8
		c-9.2,2.1-24.6,12.1-31.9,17.7l2.5,7.6l1,1.2c5-4.3,22.1-15.8,30.4-17.6c8.1-1.9,14.9,0.2,22.7,2.7c7.3,2.2,15.6,4.8,25.5,3.9
		c5.9-0.5,11-1.6,15.4-3.3L319.1,17.1z"/>
	<g>
		<path class="st0" d="M236.1,98.9l-19.9-65l0.5-0.4c5.1-4.4,22.8-16.4,32.3-18.6c9.4-2.2,17.1,0.2,25.2,2.7
			c7,2.2,14.3,4.4,23.1,3.7c9.5-0.8,17-3.4,21.6-7.3l2.9-2.5l-15.5,41.1l27.4,25.1l-0.8,0.7c-3.5,3-15.6,12.9-25.9,14.7
			c-11.9,2-19.1-0.7-26.1-3.3c-6.5-2.4-12.6-4.7-22.2-3.1c-7.1,1.2-14.4,4.9-21.7,11.2L236.1,98.9z M218.4,34.6L237,95.5
			c7.2-5.9,14.4-9.5,21.5-10.7c10.1-1.7,16.8,0.8,23.2,3.2c6.7,2.5,13.7,5.1,25.1,3.2c9.1-1.5,19.9-10,24.1-13.5l-26.8-24.5
			l13.4-35.7c-4.9,3.1-11.6,5.1-20,5.8c-9.2,0.8-16.6-1.5-23.9-3.7c-7.9-2.4-15.3-4.7-24.2-2.7C240.9,18.8,224.2,29.8,218.4,34.6z"
			/>
	</g>
	<g>
		<path class="st0" d="M276.5,72.5c-2.6,0-5.2-0.2-7.9-0.5c-2.7-0.3-5.7-0.8-7.6-1.4l-1.9-7.7c0,0,9.5,2.6,14,2.5
			c8.2-0.1,8.3-2,8.4-3.4c0.2-2.3-2.3-5.3-9.2-6.8c-3.6-0.8-5.1-0.7-9.8-1.7c-3.7-0.8-9.3-3.8-10.6-8.7c-2.1-8.1,0.7-14.6,11.7-14.8
			c5.6-0.1,11.2,2,13.1,3.1l1.1,7c0,0-5.5-2.6-11.1-2.9c-3.1-0.2-8.1,0-6.9,5.5c0.3,1.5,1.7,2.5,3,3.2c3.9,2,13.9,2.5,18.5,4.6
			c4.5,2,6.6,6.2,7.2,8.6c1.2,4.4,0.7,8.6-1.6,10.7C284.9,71.9,282.3,72.5,276.5,72.5z"/>
	</g>
	<path class="st0" d="M251.7,145.3l-2.1,0.7c-0.4,0.1-0.9-0.1-1.1-0.6l-34.3-112c-0.1-0.4,0.1-0.9,0.6-1.1l2.1-0.7
		c0.4-0.1,0.9,0.1,1.1,0.6l34.3,112C252.4,144.7,252.2,145.1,251.7,145.3z"/>
</g>
</svg>
