<svg id="Layer_1" data-name="Layer 1" xmlns="http://www.w3.org/2000/svg" viewBox="0 0 400 103.56"><defs><style>.cls-1{fill:#29588c;}</style></defs><title>logo-type</title><path class="cls-1" d="M85.29,48.86c0,1.89,0,4,.16,6.32h0a50.34,50.34,0,0,0-2.26-6L78.28,38.39H70.75L70.1,49.63a45.12,45.12,0,0,0,.13,5.8h0a47.88,47.88,0,0,0-2-5.92L63.5,38.39H55.58L67.44,65.56h8.49l.32-10.47a41.17,41.17,0,0,0-.3-6.64h0c.79,2.58,1.58,5,2.41,6.92l4.26,10.18h9.1L93,38.39H85.48Z"/><path class="cls-1" d="M123.36,56c-11.88-8.7-16.3-24.7-10.83-29.42C83.77,9.11,71.61,23.19,50.31,20.25c-9.69-1.34-12-8.9-35.53-7.16L14.69,13c.94-.82,1.65-3.09,1.49-4.94A9,9,0,0,0,7.41,0,7.34,7.34,0,0,0,0,8.09,8.39,8.39,0,0,0,5.27,15.4c.44.2,20.17,81.69,22.35,88.16h5.82L8.19,11.81l-.13-.11A4,4,0,0,1,4.46,8.09,3.29,3.29,0,0,1,7.79,4.45a4,4,0,0,1,3.94,3.64A3.3,3.3,0,0,1,10,11.33l0,.18L38.6,103.56H45c-3.58-10.73-18.07-53-25.61-75.78l.08-.1c6.22,9.06,10.56,17,15.89,30.43,2.67,6.83,6.31,20.66,9.44,29.71l1.34-1.4a16.4,16.4,0,0,1,13.2-3.93c4.65.26,4.19,3.62,12.78,5.32,10.65,2.1,17-4.39,28.71-5.69C120,80,137.17,87.81,137.56,87.73,137.62,87.6,136.41,65.51,123.36,56ZM98.85,77.19C85.92,79,82.78,83.53,74.16,82.9c-6.38-.46-7.49-4.88-12.77-6a22.08,22.08,0,0,0-14.11,1.76c-9.66-41.83-28.56-60.3-28.56-60.3,16-3,19.15,5.84,34.52,6.8C73.32,26.38,83.81,16.3,105.65,28c-3.78,8,4.79,23.77,11.65,28.51C130,65.3,131.81,80.7,131.77,80.8,131.48,80.86,116.49,74.76,98.85,77.19Z"/><polygon class="cls-1" points="179.07 62.39 173.17 38.59 165.53 38.59 159.87 62.39 154.3 38.4 146.18 38.4 156.14 72.94 162.96 72.94 169.2 47.39 175.64 72.94 182.65 72.94 192.04 38.4 184.3 38.4 179.07 62.39"/><rect class="cls-1" x="194.7" y="47.68" width="6.77" height="25.25"/><rect class="cls-1" x="194.6" y="38.39" width="6.97" height="6.1"/><rect class="cls-1" x="206.26" y="38.39" width="6.77" height="34.54"/><path class="cls-1" d="M232.19,46.91a9.39,9.39,0,0,0-4.16,1,9.53,9.53,0,0,0-3.48,3V38.39h-6.77V72.93h6.77V57.75a4.61,4.61,0,0,1,.46-2.06,5.92,5.92,0,0,1,1.14-1.62A6.26,6.26,0,0,1,227.91,53a5.92,5.92,0,0,1,2.25-.39,3.77,3.77,0,0,1,2.71,1q1,1,1,3.63V72.93h6.77V56.25q0-4.84-2.08-7.09T232.19,46.91Z"/><path class="cls-1" d="M256.81,46.91a14.14,14.14,0,0,0-5.13.9,10.88,10.88,0,0,0-4,2.64,12,12,0,0,0-2.59,4.23,16.35,16.35,0,0,0-.92,5.68q0,6.39,3.17,9.87t9.46,3.48q5.22,0,8-2.2A9.92,9.92,0,0,0,268.18,65H261.6q-.73,3.39-4.74,3.39a5.38,5.38,0,0,1-4.35-1.72A7.54,7.54,0,0,1,251,62h17.51V59.24q0-5.66-2.93-9T256.81,46.91ZM251.05,57.5a6.59,6.59,0,0,1,.44-2.15,5.4,5.4,0,0,1,1.09-1.74,5,5,0,0,1,1.72-1.19,6,6,0,0,1,2.37-.44,5.06,5.06,0,0,1,4,1.45,5.94,5.94,0,0,1,1.28,4.06Z"/><rect class="cls-1" x="272.39" y="38.39" width="6.77" height="34.54"/><path class="cls-1" d="M312.63,46.91a9,9,0,0,0-4.26,1,11.32,11.32,0,0,0-3.68,3.34A6,6,0,0,0,302.23,48a8.95,8.95,0,0,0-8.47-.1,9.21,9.21,0,0,0-3.29,3.14V47.68H283.9V72.93h6.77V57.75a5.09,5.09,0,0,1,.41-2.06,5.2,5.2,0,0,1,1.09-1.62,5.1,5.1,0,0,1,1.67-1.16,5,5,0,0,1,1.86-.34,3.8,3.8,0,0,1,1.21.19,2.19,2.19,0,0,1,1,.68,3.53,3.53,0,0,1,.65,1.33,8.24,8.24,0,0,1,.24,2.2v16h6.77V57.45a4.25,4.25,0,0,1,.41-1.84,5.49,5.49,0,0,1,1.09-1.55,5.1,5.1,0,0,1,1.67-1.16,5,5,0,0,1,1.86-.34,3.82,3.82,0,0,1,1.21.19,2.2,2.2,0,0,1,1,.68,3.53,3.53,0,0,1,.65,1.33,8.23,8.23,0,0,1,.24,2.2v16h6.77V56.05q0-4.84-2-7T312.63,46.91Z"/><path class="cls-1" d="M344.64,60.33a8.42,8.42,0,0,0-2.78-1.67,22.33,22.33,0,0,0-4.4-1.11L334.26,57a7.61,7.61,0,0,1-2.93-.94,2.05,2.05,0,0,1-.75-1.77,1.86,1.86,0,0,1,.22-.82,2.07,2.07,0,0,1,.73-.77,4.46,4.46,0,0,1,1.4-.56,9.71,9.71,0,0,1,2.25-.22,5.88,5.88,0,0,1,3.51.82,4.42,4.42,0,0,1,1.52,2.56l6-.77a12.27,12.27,0,0,0-.94-3,6.64,6.64,0,0,0-1.94-2.42,9.77,9.77,0,0,0-3.31-1.62,17.89,17.89,0,0,0-5-.6,16.54,16.54,0,0,0-4.43.56A11.19,11.19,0,0,0,327.15,49a7.3,7.3,0,0,0-2.25,2.47,6.72,6.72,0,0,0-.8,3.29,6.38,6.38,0,0,0,2.25,5.35,14.88,14.88,0,0,0,6.84,2.49l3.48.58a4.23,4.23,0,0,1,2.49,1,2.45,2.45,0,0,1,.65,1.69,2.09,2.09,0,0,1-1,2,7.27,7.27,0,0,1-3.46.6,8.16,8.16,0,0,1-3.48-.68A3.49,3.49,0,0,1,330,64.9h-6.48a9,9,0,0,0,1.18,4.26,8.22,8.22,0,0,0,2.66,2.71,10.88,10.88,0,0,0,3.68,1.43,22.13,22.13,0,0,0,4.33.41q5.66,0,8.37-2.15a7,7,0,0,0,2.71-5.73,10.86,10.86,0,0,0-.41-3.14A5.35,5.35,0,0,0,344.64,60.33Z"/><path class="cls-1" d="M361.59,46.91a14.14,14.14,0,0,0-5.13.9,10.88,10.88,0,0,0-4,2.64,12,12,0,0,0-2.59,4.23,16.35,16.35,0,0,0-.92,5.68q0,6.39,3.17,9.87t9.46,3.48q5.22,0,8-2.2A9.92,9.92,0,0,0,373,65h-6.58q-.73,3.39-4.74,3.39a5.38,5.38,0,0,1-4.35-1.72A7.54,7.54,0,0,1,355.74,62h17.51V59.24q0-5.66-2.93-9T361.59,46.91ZM355.83,57.5a6.59,6.59,0,0,1,.44-2.15,5.4,5.4,0,0,1,1.09-1.74,5,5,0,0,1,1.72-1.19,6,6,0,0,1,2.37-.44,5.06,5.06,0,0,1,4,1.45,5.94,5.94,0,0,1,1.28,4.06Z"/><path class="cls-1" d="M397.92,49.16q-2.08-2.25-6.39-2.25a9.55,9.55,0,0,0-4.28,1,9.25,9.25,0,0,0-3.56,3.24V47.68h-6.58V72.93h6.77V57.75a4.62,4.62,0,0,1,.46-2.06,5.92,5.92,0,0,1,1.14-1.62A6.25,6.25,0,0,1,387.25,53a5.92,5.92,0,0,1,2.25-.39,3.77,3.77,0,0,1,2.71,1q1,1,1,3.63V72.93H400V56.25Q400,51.41,397.92,49.16Z"/></svg>